<?xml version="1.0" encoding="UTF-8" standalone="no"?>
<svg
   xmlns:dc="http://purl.org/dc/elements/1.1/"
   xmlns:cc="http://creativecommons.org/ns#"
   xmlns:rdf="http://www.w3.org/1999/02/22-rdf-syntax-ns#"
   xmlns:svg="http://www.w3.org/2000/svg"
   xmlns="http://www.w3.org/2000/svg"
   xmlns:sodipodi="http://sodipodi.sourceforge.net/DTD/sodipodi-0.dtd"
   xmlns:inkscape="http://www.inkscape.org/namespaces/inkscape"
   inkscape:version="1.0 (4035a4fb49, 2020-05-01)"
   sodipodi:docname="SciLifeLab_symbol_green.svg"
   viewBox="0 0 117.48682 111.11891"
   height="111.11891"
   width="117.48682"
   xml:space="preserve"
   id="svg1376"
   version="1.1"><metadata
     id="metadata1382"><rdf:RDF><cc:Work
         rdf:about=""><dc:format>image/svg+xml</dc:format><dc:type
           rdf:resource="http://purl.org/dc/dcmitype/StillImage" /><dc:title></dc:title></cc:Work></rdf:RDF></metadata><defs
     id="defs1380"><clipPath
       id="clipPath1392"
       clipPathUnits="userSpaceOnUse"><path
         id="path1390"
         d="M 0,87.884 H 94.482 V 0 H 0 Z" /></clipPath></defs><sodipodi:namedview
     inkscape:current-layer="g1384"
     inkscape:window-maximized="0"
     inkscape:window-y="530"
     inkscape:window-x="1499"
     inkscape:cy="105.55082"
     inkscape:cx="19.582341"
     inkscape:zoom="1.0786598"
     fit-margin-bottom="0"
     fit-margin-right="0"
     fit-margin-left="0"
     fit-margin-top="0"
     showgrid="false"
     id="namedview1378"
     inkscape:window-height="480"
     inkscape:window-width="886"
     inkscape:pageshadow="2"
     inkscape:pageopacity="0"
     guidetolerance="10"
     gridtolerance="10"
     objecttolerance="10"
     borderopacity="1"
     bordercolor="#666666"
     pagecolor="#ffffff" /><g
     transform="matrix(1.3333333,0,0,-1.3333333,-3.333359,114.14838)"
     inkscape:label="SciLifeLab_symbol_green"
     inkscape:groupmode="layer"
     id="g1384"><g
       id="g1386"><g
         clip-path="url(#clipPath1392)"
         id="g1388"><g
           transform="translate(57.2449,36.6422)"
           id="g1394"><path
             id="path1396"
             style="fill:#9dcd58;fill-opacity:1;fill-rule:nonzero;stroke:none"
             d="M 0,0 C 0.651,1.419 0.973,2.94 0.955,4.47 0.943,5.489 0.78,6.513 0.465,7.513 0.464,7.514 0.464,7.516 0.463,7.517 0.437,7.597 0.411,7.677 0.384,7.757 L 0.355,7.839 C 0.338,7.888 0.32,7.937 0.303,7.986 0.294,8.008 0.285,8.031 0.276,8.053 c -0.617,1.98 -2.088,3.778 -3.793,5.86 -2.085,2.546 -4.449,5.434 -5.675,9.32 -1.196,3.785 -0.911,7.298 -0.659,10.398 0.216,2.655 0.419,5.162 -0.308,7.468 -10e-4,0.003 -0.002,0.007 -0.003,0.011 -0.005,0.018 -0.01,0.036 -0.014,0.055 -0.014,0.051 -0.028,0.102 -0.043,0.153 l -0.022,0.084 c -0.025,0.082 -0.049,0.165 -0.075,0.246 -0.054,0.171 -0.112,0.339 -0.173,0.505 -0.01,0.025 -0.02,0.048 -0.03,0.073 -0.054,0.142 -0.11,0.284 -0.17,0.424 -0.002,0.005 -0.005,0.011 -0.007,0.016 -0.951,2.202 -2.616,3.996 -4.773,5.118 -2.162,1.124 -4.592,1.455 -6.945,0.965 h -0.002 c -0.153,-0.033 -0.306,-0.069 -0.459,-0.108 -0.021,-0.005 -0.042,-0.01 -0.062,-0.015 -0.172,-0.045 -0.343,-0.094 -0.514,-0.148 -2.666,-0.842 -4.845,-2.672 -6.135,-5.153 -0.161,-0.31 -0.307,-0.626 -0.435,-0.946 -0.514,-1.28 -0.766,-2.633 -0.75,-3.992 0.012,-1.02 0.174,-2.044 0.491,-3.044 0,-0.002 0.001,-0.004 0.002,-0.006 0.025,-0.08 0.051,-0.159 0.078,-0.237 l 0.029,-0.083 c 0.006,-0.016 0.011,-0.031 0.017,-0.046 0.008,-0.024 0.017,-0.049 0.026,-0.073 0.005,-0.015 0.011,-0.031 0.017,-0.046 l 0.018,-0.048 c 0.615,-1.972 2.085,-3.768 3.787,-5.848 2.088,-2.552 4.454,-5.444 5.683,-9.333 1.231,-3.9 0.956,-7.649 0.713,-10.956 -0.195,-2.669 -0.365,-4.975 0.254,-6.909 10e-4,-0.003 10e-4,-0.007 0.002,-0.009 0.005,-0.02 0.009,-0.04 0.014,-0.06 0.014,-0.05 0.029,-0.101 0.042,-0.151 l 0.024,-0.084 c 0.023,-0.082 0.049,-0.164 0.074,-0.246 0.044,-0.14 0.091,-0.277 0.14,-0.414 1.527,-4.221 5.542,-6.903 9.849,-6.903 1.041,0 2.101,0.157 3.146,0.487 2.667,0.842 4.845,2.672 6.135,5.153 C -0.149,-0.314 -0.073,-0.158 0,0" /></g><g
           transform="translate(88.6638,62.9581)"
           id="g1398"><path
             id="path1400"
             style="fill:#9dcd58;fill-opacity:1;fill-rule:nonzero;stroke:none"
             d="m 0,0 c -1.782,2.795 -4.547,4.729 -7.784,5.445 -6.683,1.478 -13.321,-2.756 -14.8,-9.438 -0.021,-0.099 -0.042,-0.199 -0.062,-0.299 l -0.018,-0.101 c -0.014,-0.068 -0.025,-0.137 -0.038,-0.206 l -10e-4,-0.006 c -0.002,-0.016 -0.005,-0.032 -0.007,-0.047 -10e-4,-0.003 -10e-4,-0.006 -0.002,-0.009 -0.537,-2.39 -0.092,-5.111 0.424,-8.263 0.635,-3.876 1.353,-8.269 0.304,-13.017 -1.054,-4.761 -3.571,-8.464 -5.791,-11.731 -1.787,-2.631 -3.332,-4.903 -3.844,-7.257 -0.001,-0.005 -0.003,-0.01 -0.004,-0.014 -0.006,-0.022 -0.013,-0.043 -0.018,-0.064 -0.016,-0.061 -0.033,-0.123 -0.048,-0.184 l -0.026,-0.1 c -0.024,-0.099 -0.048,-0.198 -0.069,-0.297 -0.717,-3.238 -0.129,-6.56 1.653,-9.355 1.783,-2.795 4.548,-4.729 7.784,-5.445 0.901,-0.199 1.806,-0.298 2.706,-0.298 2.337,0 4.631,0.665 6.65,1.952 0.698,0.445 1.344,0.953 1.928,1.513 1.757,1.681 2.979,3.843 3.516,6.271 10e-4,0.002 10e-4,0.003 10e-4,0.005 0.022,0.098 0.042,0.196 0.062,0.294 l 0.018,0.101 c 0.013,0.069 0.027,0.137 0.038,0.206 l 0.001,0.007 c 0.003,0.017 0.005,0.035 0.008,0.052 v 0.003 c 0.54,2.4 0.094,5.125 -0.423,8.28 -0.635,3.87 -1.352,8.256 -0.304,13 1.023,4.621 3.41,8.075 5.516,11.123 1.8,2.604 3.499,5.064 4.118,7.864 0.002,0.006 0.004,0.013 0.006,0.019 0.006,0.02 0.012,0.04 0.017,0.06 0.016,0.061 0.032,0.123 0.049,0.185 l 0.025,0.099 c 0.024,0.099 0.048,0.198 0.069,0.298 C 2.37,-6.118 1.783,-2.795 0,0" /></g><g
           transform="translate(18.8201,58.5455)"
           id="g1402"><path
             id="path1404"
             style="fill:#9dcd58;fill-opacity:1;fill-rule:nonzero;stroke:none"
             d="m 0,0 c -2.646,1.376 -5.669,1.639 -8.513,0.741 -2.843,-0.898 -5.167,-2.85 -6.543,-5.496 -1.376,-2.645 -1.638,-5.668 -0.74,-8.512 0.898,-2.844 2.85,-5.168 5.495,-6.543 1.614,-0.839 3.368,-1.265 5.138,-1.265 1.13,0 2.266,0.174 3.375,0.524 2.843,0.898 5.167,2.85 6.543,5.495 1.375,2.646 1.639,5.669 0.74,8.513 C 4.597,-3.699 2.646,-1.375 0,0" /></g></g></g></g></svg>
